<?xml version="1.0" encoding="utf-8"?>
<!-- Generator: Adobe Illustrator 20.0.0, SVG Export Plug-In . SVG Version: 6.00 Build 0)  -->
<svg version="1.1" xmlns="http://www.w3.org/2000/svg" xmlns:xlink="http://www.w3.org/1999/xlink" x="0px" y="0px"
	 viewBox="0 0 1010 660" enable-background="new 0 0 1010 660" xml:space="preserve">
<g id="Layer_1">
	<rect x="0" y="0" fill="#231F20" width="1010" height="660"/>
</g>
<g id="Layer_2">
	<polyline fill="#0A2332" stroke="#165B7B" stroke-miterlimit="10" points="988,663 988,510.1 18,510.1 18,663 	"/>
	<circle fill="#193634" stroke="#558139" stroke-miterlimit="10" cx="640.5" cy="623.4" r="9.9"/>
	<polyline fill="none" stroke="#558139" stroke-miterlimit="10" points="640.5,535.4 640.5,623.4 654.6,623.4 	"/>
	<circle fill="#193634" stroke="#558139" stroke-miterlimit="10" cx="640.5" cy="579.4" r="2.4"/>
	<circle fill="#193634" stroke="#558139" stroke-miterlimit="10" cx="640.5" cy="535.4" r="2.4"/>
	<line fill="none" stroke="#165B7B" stroke-miterlimit="10" x1="607.1" y1="522" x2="607.1" y2="648"/>
	<line fill="none" stroke="#165B7B" stroke-miterlimit="10" x1="600.5" y1="522" x2="600.5" y2="648"/>
</g>
<g id="Layer_3">
	<text transform="matrix(1 0 0 1 662.4327 542.2531)" fill="#FFFFFF" font-family="'Helvetica-Light'" font-size="20px">Temperature:</text>
	<text transform="matrix(1 0 0 1 662.4322 584.9977)" fill="#FFFFFF" font-family="'Helvetica-Light'" font-size="20px">Electric Power:</text>
	<text transform="matrix(1 0 0 1 79.3555 542.822)" fill="#FFFFFF" font-family="'Helvetica-Light'" font-size="20px">Density:</text>
	<text transform="matrix(1 0 0 1 937.9835 547.2568)" fill="#FFFFFF" font-family="'Helvetica-Light'" font-size="15px">keV</text>
	<text transform="matrix(1 0 0 1 937.983 586.4306)" fill="#FFFFFF" font-family="'Helvetica-Light'" font-size="15px">MW</text>
	<text transform="matrix(1 0 0 1 662.4332 634.7722)" fill="#FFFFFF" font-family="'Helvetica-Bold'" font-size="30px">Score:</text>
	<g>
		<g>
			<g>
				<line fill="none" stroke="#8DC63F" stroke-width="2" stroke-miterlimit="10" x1="54.3" y1="571.9" x2="180.7" y2="571.9"/>
				<g>
					<polygon fill="#8DC63F" points="57.2,581.8 39.9,571.9 57.2,561.9 					"/>
				</g>
				<g>
					<polygon fill="#8DC63F" points="177.8,581.8 195,571.9 177.8,561.9 					"/>
				</g>
			</g>
		</g>
		<g>
			<rect x="60.7" y="562" fill="#558139" width="9.4" height="19.7"/>
			<path fill="#FFFFFF" d="M69.1,563v17.7h-7.4V563H69.1 M71.1,561H59.7v21.7h11.4V561L71.1,561z"/>
		</g>
	</g>
	<text transform="matrix(1 0 0 1 866.8751 547.2575)" fill="#FFFFFF" font-family="'Helvetica'" font-size="25px">1.115</text>
	<text transform="matrix(1 0 0 1 857.9249 586.5624)" fill="#ED1C24" font-family="'Helvetica'" font-size="25px">-2.790</text>
	<text transform="matrix(1 0 0 1 93.4903 635.4113)" fill="#FFFFFF" font-family="'Helvetica-Light'" font-size="15px">m^(-3)</text>
	<text transform="matrix(1 0 0 1 84.6324 615.3737)" fill="#FFFFFF" font-family="'Helvetica'" font-size="25px">01.00</text>
	<text transform="matrix(1 0 0 1 251.5616 542.822)" fill="#FFFFFF" font-family="'Helvetica-Light'" font-size="20px">Aux. Power:</text>
	<g>
		<g>
			<g>
				<line fill="none" stroke="#8C4682" stroke-width="2" stroke-miterlimit="10" x1="244.5" y1="571.9" x2="370.9" y2="571.9"/>
				<g>
					<polygon fill="#8C4682" points="247.4,581.8 230.1,571.9 247.4,561.9 					"/>
				</g>
				<g>
					<polygon fill="#8C4682" points="367.9,581.8 385.2,571.9 367.9,561.9 					"/>
				</g>
			</g>
		</g>
		<g>
			<rect x="250.9" y="562" fill="#5A326E" width="9.4" height="19.7"/>
			<path fill="#FFFFFF" d="M259.3,563v17.7h-7.4V563H259.3 M261.3,561h-11.4v21.7h11.4V561L261.3,561z"/>
		</g>
	</g>
	<text transform="matrix(1 0 0 1 294.3712 636.3068)" fill="#FFFFFF" font-family="'Helvetica-Light'" font-size="15px">MW</text>
	<text transform="matrix(1 0 0 1 274.8174 615.3732)" fill="#FFFFFF" font-family="'Helvetica'" font-size="25px">00.00</text>
	<text transform="matrix(1 0 0 1 425.6846 542.822)" fill="#FFFFFF" font-family="'Helvetica-Light'" font-size="20px">Magnetic Field:</text>
	<g>
		<g>
			<g>
				<line fill="none" stroke="#26A7DD" stroke-width="2" stroke-miterlimit="10" x1="435.1" y1="571.9" x2="561.5" y2="571.9"/>
				<g>
					<polygon fill="#26A7DD" points="438.1,581.8 420.8,571.9 438.1,561.9 					"/>
				</g>
				<g>
					<polygon fill="#26A7DD" points="558.6,581.8 575.9,571.9 558.6,561.9 					"/>
				</g>
			</g>
		</g>
		<g>
			<rect x="441.5" y="562" fill="#165B7B" width="9.4" height="19.7"/>
			<path fill="#FFFFFF" d="M449.9,563v17.7h-7.4V563H449.9 M451.9,561h-11.4v21.7h11.4V561L451.9,561z"/>
		</g>
	</g>
	<text transform="matrix(1 0 0 1 493.9864 636.307)" fill="#FFFFFF" font-family="'Helvetica-Light'" font-size="15px">T</text>
	<text transform="matrix(1 0 0 1 465.5005 615.3727)" fill="#FFFFFF" font-family="'Helvetica'" font-size="25px">03.00</text>
	<text transform="matrix(1 0 0 1 853.8629 633.8185)" fill="#FFFFFF" font-family="'Helvetica-Bold'" font-size="30px">2.782</text>
	<polygon fill="none" stroke="#FFFFFF" stroke-miterlimit="10" points="57.3,581.9 39.9,571.9 57.3,561.8 	"/>
	<polygon fill="none" stroke="#FFFFFF" stroke-miterlimit="10" points="177.7,561.8 195,571.9 177.7,581.9 	"/>
	<polygon fill="none" stroke="#FFFFFF" stroke-miterlimit="10" points="367.8,561.8 385.2,571.9 367.8,581.9 	"/>
	<polygon fill="none" stroke="#FFFFFF" stroke-miterlimit="10" points="558.5,561.8 575.9,571.9 558.5,581.9 	"/>
	<polygon fill="none" stroke="#FFFFFF" stroke-miterlimit="10" points="247.5,581.9 230.1,571.9 247.5,561.8 	"/>
	<polygon fill="none" stroke="#FFFFFF" stroke-miterlimit="10" points="438.2,581.9 420.8,571.9 438.2,561.8 	"/>
	<rect x="22.4" y="27.6" fill="#0D3042" stroke="#FFFFFF" stroke-miterlimit="10" width="234.9" height="34.1"/>
	<rect x="761.9" y="32.2" fill="#FFFFFF" stroke="#193634" stroke-miterlimit="10" width="234.9" height="34.1"/>
	<rect x="757.5" y="27.6" fill="#558139" stroke="#FFFFFF" stroke-miterlimit="10" width="234.9" height="34.1"/>
	<rect x="374.3" y="27.6" fill="#322850" stroke="#FFFFFF" stroke-miterlimit="10" width="268.2" height="34.1"/>
	<text transform="matrix(1 0 0 1 394.4771 51.9782)" fill="#FFFFFF" font-family="'Helvetica-Light'" font-size="20px">VIEW HEAT EXCHANGE</text>
	<text transform="matrix(1 0 0 1 824.3492 51.9782)" fill="#FFFFFF" font-family="'Helvetica-Light'" font-size="20px">VIEW CITY</text>
	<text transform="matrix(1 0 0 1 63.5621 51.9782)" fill="#FFFFFF" font-family="'Helvetica-Light'" font-size="20px">VIEW REACTOR</text>
	<polyline fill="none" stroke="#8C4682" stroke-miterlimit="10" points="255.9,426.2 309.2,479.5 622,479.5 831.7,479.5 870.2,441 
		870.2,426.2 	"/>
	<polyline fill="none" stroke="#8C4682" stroke-miterlimit="10" points="263.8,426.2 311.3,473.6 817.3,473.6 817.3,426.2 	"/>
	<polyline fill="none" stroke="#8C4682" stroke-miterlimit="10" points="271.9,426.2 313.3,467.6 656.5,467.6 	"/>
	<polyline fill="none" stroke="#8C4682" stroke-miterlimit="10" points="281.2,426.2 316.4,461.4 520.2,461.4 520.2,444.7 
		573,444.7 591.5,426.1 	"/>
	<line fill="none" stroke="#8C4682" stroke-miterlimit="10" x1="767" y1="473.6" x2="767" y2="426.6"/>
	<line fill="none" stroke="#8C4682" stroke-miterlimit="10" x1="514.2" y1="461.4" x2="514.2" y2="426.6"/>
	<polyline fill="none" stroke="#8C4682" stroke-miterlimit="10" points="650.7,467.6 699.4,467.6 708.8,458.3 708.8,426.6 	"/>
	<polyline fill="none" stroke="#8C4682" stroke-miterlimit="10" points="634.5,467.6 655.1,447 655.1,426.2 	"/>
	<g>
		<polygon fill="#0A2332" stroke="#193634" stroke-miterlimit="10" points="660.9,417.1 660.9,375.6 641.7,375.6 641.7,396.3 
			610.6,396.3 610.6,339.5 588.3,339.5 588.3,361.9 582.8,361.9 582.8,352.3 564.3,352.3 564.3,390.6 552.9,390.6 552.9,378.3 
			536.1,361.5 536.1,408.9 526.1,408.9 526.1,392.5 518.1,384.5 501.9,384.5 495.3,391.1 495.3,345.4 490.9,345.4 490.9,337.6 
			484.3,337.6 484.3,345.6 480.3,345.6 480.3,368.6 478.7,368.6 478.7,360.6 470.3,360.6 467.8,363.1 467.8,381.5 460,381.5 
			460,374.4 450.9,374.4 450.9,354 445.6,354 445.6,350.4 441.6,354.5 441.6,390.1 429.9,390.1 429.9,417.1 		"/>
		<g>
			<polygon fill="#0A2332" stroke="#193634" stroke-miterlimit="10" points="930.3,289.3 930.3,361.5 963.8,362.5 963.8,417.6 
				494.3,417.6 494.3,333.1 533.3,333.1 533.3,375.3 605.4,375.3 605.4,253.1 641.9,253.1 641.9,305.2 653.1,305.2 653.1,285.7 
				690.6,285.7 690.6,363.7 713.8,363.7 713.8,338.6 748,304.5 748,400.9 768.2,400.9 768.2,367.4 784.5,351.2 807.4,351.2 
				820.9,364.7 820.9,271.8 829.7,271.8 829.7,256 843.3,256 843.3,272.1 851.4,272.1 851.4,319 864.6,319 864.6,302.7 881.6,302.7 
				886.7,307.8 886.7,345.1 902.5,345.1 902.5,330.8 911.4,330.8 911.4,289.3 917,289.3 917,272.6 919.6,272.6 919.6,289.3 
				921.2,289.3 921.2,279 923.3,279 923.3,289.3 			"/>
			<polygon fill="#0A2332" stroke="#193634" stroke-miterlimit="10" points="625.2,403.5 655.2,403.5 655.2,252.5 668.5,239.2 
				695.4,239.2 706.5,250.2 706.5,297.9 731.7,297.9 731.7,285 742.7,285 742.7,298.1 749.4,298.1 749.4,336.5 752,336.5 752,323.2 
				765.9,323.2 770.1,327.4 770.1,357.9 783,357.9 783,346.1 798.2,346.1 798.2,312.2 807,312.2 807,306.2 813.7,313 813.7,372.1 
				833.1,372.1 833.1,417.1 419.1,417.1 419.1,327.8 451,327.8 451,382.6 502.6,382.6 502.6,231.3 539.8,231.3 539.8,325.2 
				556,325.2 556,309.3 586.7,309.3 586.7,373.1 598.6,373.1 598.6,306.3 625.2,333 			"/>
			<polyline fill="#193634" stroke="#558139" stroke-miterlimit="10" points="937.6,417.6 434.9,417.6 434.9,362.5 458.7,362.5 
				458.7,290.2 466.9,282 466.9,289.3 477.6,289.3 477.6,330.8 504.2,330.8 504.2,345.1 520,345.1 520,307.8 525.1,302.7 
				542.1,302.7 542.1,319 551.3,319 551.3,223.7 559.5,223.7 559.5,207.6 573,207.6 573,223.4 581.8,223.4 581.8,364.7 595.3,351.2 
				622.2,351.2 638.5,367.4 638.5,400.9 668.7,400.9 668.7,254.6 702.9,288.7 702.9,363.7 728.8,363.7 728.8,235.7 756.6,235.7 
				756.6,305.2 764.8,305.2 764.8,259.7 810.3,259.7 810.3,375.3 887.7,375.3 887.7,333.1 936.9,382.2 936.9,417.6 			"/>
		</g>
		<g>
			<g>
				<polygon fill="#558139" stroke="#8DC63F" stroke-miterlimit="10" points="558.9,417.1 558.9,273.3 612.8,219.3 612.8,417.1 				
					"/>
				<polygon fill="#558139" stroke="#8DC63F" stroke-miterlimit="10" points="594.3,304.5 594.3,299.4 615.2,299.4 615.2,293.5 
					594.3,293.5 594.3,288.5 615.2,288.5 615.2,282.6 594.3,282.6 594.3,277.5 615.2,277.5 615.2,271.7 594.3,271.7 594.3,266.6 
					615.2,266.6 615.2,201.5 556.5,260.3 556.5,417.1 615.2,417.1 615.2,304.5 				"/>
			</g>
			<g>
				<rect x="643.2" y="238.7" fill="#558139" stroke="#8DC63F" stroke-miterlimit="10" width="3.7" height="44.6"/>
				<polygon fill="#558139" stroke="#8DC63F" stroke-miterlimit="10" points="639,278 631.1,285.9 631.1,417.1 677.8,417.1 
					677.8,285.9 669.9,278 				"/>
			</g>
			<polygon fill="#558139" stroke="#8DC63F" stroke-miterlimit="10" points="847.4,417.1 847.4,308.5 860.5,308.5 860.5,282.3 
				874,282.3 874.3,257.8 887.4,257.8 887.4,244.5 893.1,244.5 893.1,417.1 			"/>
			<path fill="#558139" stroke="#8DC63F" stroke-miterlimit="10" d="M482.9,203.6v213.5h62.7V203.6H482.9z M537.6,232.7l-7.9,7.9
				h-31l-7.9-7.9l0-19.4h46.8V232.7z"/>
			<g>
				<rect x="770.6" y="224" fill="#558139" stroke="#8DC63F" stroke-miterlimit="10" width="43.1" height="21.8"/>
				<polygon fill="#558139" stroke="#8DC63F" stroke-miterlimit="10" points="749,417.1 749,224 756.8,216.3 785,216.3 785,417.1 
									"/>
				<polygon fill="#558139" stroke="#8DC63F" stroke-miterlimit="10" points="835.3,417.1 835.3,224 827.5,216.3 799.3,216.3 
					799.3,417.1 				"/>
			</g>
			<polygon fill="#558139" stroke="#8DC63F" stroke-miterlimit="10" points="678,417.1 694.2,400.9 694.2,273.4 700.7,267 
				700.7,212 680.7,212 671.5,203.3 680.7,193.6 736.8,193.6 746,203.3 736.8,212 716.8,212 716.8,267 723.3,273.4 723.3,400.9 
				739.5,417.1 			"/>
			<rect x="387" y="417.1" fill="#558139" stroke="#8DC63F" stroke-miterlimit="10" width="594.5" height="9"/>
		</g>
		<g>
			<rect x="489.7" y="403.1" fill="#0A2332" stroke="#193634" stroke-miterlimit="10" width="7.5" height="7.5"/>
			<rect x="503.1" y="403.1" fill="#0A2332" stroke="#193634" stroke-miterlimit="10" width="7.5" height="7.5"/>
			<rect x="516.5" y="403.1" fill="#0A2332" stroke="#193634" stroke-miterlimit="10" width="7.5" height="7.5"/>
			<rect x="529.9" y="403.1" fill="#0A2332" stroke="#193634" stroke-miterlimit="10" width="7.5" height="7.5"/>
			<rect x="489.7" y="390.4" fill="#0A2332" stroke="#193634" stroke-miterlimit="10" width="7.5" height="7.5"/>
			<rect x="503.1" y="390.4" fill="#0A2332" stroke="#193634" stroke-miterlimit="10" width="7.5" height="7.5"/>
			<rect x="516.5" y="390.4" fill="#0A2332" stroke="#193634" stroke-miterlimit="10" width="7.5" height="7.5"/>
			<rect x="529.9" y="390.4" fill="#0A2332" stroke="#193634" stroke-miterlimit="10" width="7.5" height="7.5"/>
			<rect x="489.7" y="377.7" fill="#0A2332" stroke="#193634" stroke-miterlimit="10" width="7.5" height="7.5"/>
			<rect x="503.1" y="377.7" fill="#0A2332" stroke="#193634" stroke-miterlimit="10" width="7.5" height="7.5"/>
			<rect x="516.5" y="377.7" fill="#0A2332" stroke="#193634" stroke-miterlimit="10" width="7.5" height="7.5"/>
			<rect x="529.9" y="377.7" fill="#0A2332" stroke="#193634" stroke-miterlimit="10" width="7.5" height="7.5"/>
			<rect x="562" y="403.1" fill="#0A2332" stroke="#193634" stroke-miterlimit="10" width="7.5" height="7.5"/>
			<rect x="575.4" y="403.1" fill="#0A2332" stroke="#193634" stroke-miterlimit="10" width="7.5" height="7.5"/>
			<rect x="588.8" y="403.1" fill="#0A2332" stroke="#193634" stroke-miterlimit="10" width="7.5" height="7.5"/>
			<rect x="602.2" y="403.1" fill="#0A2332" stroke="#193634" stroke-miterlimit="10" width="7.5" height="7.5"/>
			<rect x="562" y="390.4" fill="#0A2332" stroke="#193634" stroke-miterlimit="10" width="7.5" height="7.5"/>
			<rect x="575.4" y="390.4" fill="#0A2332" stroke="#193634" stroke-miterlimit="10" width="7.5" height="7.5"/>
			<rect x="588.8" y="390.4" fill="#0A2332" stroke="#193634" stroke-miterlimit="10" width="7.5" height="7.5"/>
			<rect x="602.2" y="390.4" fill="#0A2332" stroke="#193634" stroke-miterlimit="10" width="7.5" height="7.5"/>
			<rect x="562" y="377.7" fill="#0A2332" stroke="#193634" stroke-miterlimit="10" width="7.5" height="7.5"/>
			<rect x="575.4" y="377.7" fill="#0A2332" stroke="#193634" stroke-miterlimit="10" width="7.5" height="7.5"/>
			<rect x="588.8" y="377.7" fill="#0A2332" stroke="#193634" stroke-miterlimit="10" width="7.5" height="7.5"/>
			<rect x="602.2" y="377.7" fill="#0A2332" stroke="#193634" stroke-miterlimit="10" width="7.5" height="7.5"/>
			<rect x="562" y="364.9" fill="#0A2332" stroke="#193634" stroke-miterlimit="10" width="7.5" height="7.5"/>
			<rect x="575.4" y="364.9" fill="#0A2332" stroke="#193634" stroke-miterlimit="10" width="7.5" height="7.5"/>
			<rect x="588.8" y="364.9" fill="#0A2332" stroke="#193634" stroke-miterlimit="10" width="7.5" height="7.5"/>
			<rect x="602.2" y="364.9" fill="#0A2332" stroke="#193634" stroke-miterlimit="10" width="7.5" height="7.5"/>
			<rect x="562" y="352.2" fill="#0A2332" stroke="#193634" stroke-miterlimit="10" width="7.5" height="7.5"/>
			<rect x="575.4" y="352.2" fill="#0A2332" stroke="#193634" stroke-miterlimit="10" width="7.5" height="7.5"/>
			<rect x="588.8" y="352.2" fill="#0A2332" stroke="#193634" stroke-miterlimit="10" width="7.5" height="7.5"/>
			<rect x="602.2" y="352.2" fill="#0A2332" stroke="#193634" stroke-miterlimit="10" width="7.5" height="7.5"/>
			<rect x="562" y="339.4" fill="#0A2332" stroke="#193634" stroke-miterlimit="10" width="7.5" height="7.5"/>
			<rect x="575.4" y="339.4" fill="#0A2332" stroke="#193634" stroke-miterlimit="10" width="7.5" height="7.5"/>
			<rect x="588.8" y="339.4" fill="#0A2332" stroke="#193634" stroke-miterlimit="10" width="7.5" height="7.5"/>
			<rect x="602.2" y="339.4" fill="#0A2332" stroke="#193634" stroke-miterlimit="10" width="7.5" height="7.5"/>
			<rect x="562" y="326.7" fill="#0A2332" stroke="#193634" stroke-miterlimit="10" width="7.5" height="7.5"/>
			<rect x="575.4" y="326.7" fill="#0A2332" stroke="#193634" stroke-miterlimit="10" width="7.5" height="7.5"/>
			<rect x="588.8" y="326.7" fill="#0A2332" stroke="#193634" stroke-miterlimit="10" width="7.5" height="7.5"/>
			<rect x="602.2" y="326.7" fill="#0A2332" stroke="#193634" stroke-miterlimit="10" width="7.5" height="7.5"/>
			<rect x="562" y="313.9" fill="#0A2332" stroke="#193634" stroke-miterlimit="10" width="7.5" height="7.5"/>
			<rect x="575.4" y="313.9" fill="#0A2332" stroke="#193634" stroke-miterlimit="10" width="7.5" height="7.5"/>
			<rect x="562" y="301.2" fill="#0A2332" stroke="#193634" stroke-miterlimit="10" width="7.5" height="7.5"/>
			<rect x="575.4" y="301.2" fill="#0A2332" stroke="#193634" stroke-miterlimit="10" width="7.5" height="7.5"/>
			<rect x="562" y="288.5" fill="#0A2332" stroke="#193634" stroke-miterlimit="10" width="7.5" height="7.5"/>
			<rect x="575.4" y="288.5" fill="#0A2332" stroke="#193634" stroke-miterlimit="10" width="7.5" height="7.5"/>
			<rect x="562" y="275.7" fill="#0A2332" stroke="#193634" stroke-miterlimit="10" width="7.5" height="7.5"/>
			<rect x="575.4" y="275.7" fill="#0A2332" stroke="#193634" stroke-miterlimit="10" width="7.5" height="7.5"/>
			<rect x="562" y="263" fill="#0A2332" stroke="#193634" stroke-miterlimit="10" width="7.5" height="7.5"/>
			<rect x="575.4" y="263" fill="#0A2332" stroke="#193634" stroke-miterlimit="10" width="7.5" height="7.5"/>
			<rect x="575.4" y="250.2" fill="#0A2332" stroke="#193634" stroke-miterlimit="10" width="7.5" height="7.5"/>
			<rect x="588.8" y="250.2" fill="#0A2332" stroke="#193634" stroke-miterlimit="10" width="7.5" height="7.5"/>
			<rect x="602.2" y="250.2" fill="#0A2332" stroke="#193634" stroke-miterlimit="10" width="7.5" height="7.5"/>
			<rect x="588.8" y="313.9" fill="#0A2332" stroke="#193634" stroke-miterlimit="10" width="7.5" height="7.5"/>
			<rect x="602.2" y="313.9" fill="#0A2332" stroke="#193634" stroke-miterlimit="10" width="7.5" height="7.5"/>
			<rect x="684.9" y="199.3" fill="#0A2332" stroke="#193634" stroke-miterlimit="10" width="7.5" height="7.5"/>
			<rect x="698.3" y="199.3" fill="#0A2332" stroke="#193634" stroke-miterlimit="10" width="7.5" height="7.5"/>
			<rect x="711.7" y="199.3" fill="#0A2332" stroke="#193634" stroke-miterlimit="10" width="7.5" height="7.5"/>
			<rect x="725.1" y="199.3" fill="#0A2332" stroke="#193634" stroke-miterlimit="10" width="7.5" height="7.5"/>
			<rect x="637.3" y="403.1" fill="#0A2332" stroke="#193634" stroke-miterlimit="10" width="7.5" height="7.5"/>
			<rect x="650.7" y="403.1" fill="#0A2332" stroke="#193634" stroke-miterlimit="10" width="7.5" height="7.5"/>
			<rect x="664.1" y="403.1" fill="#0A2332" stroke="#193634" stroke-miterlimit="10" width="7.5" height="7.5"/>
			<rect x="637.3" y="390.4" fill="#0A2332" stroke="#193634" stroke-miterlimit="10" width="7.5" height="7.5"/>
			<rect x="650.7" y="390.4" fill="#0A2332" stroke="#193634" stroke-miterlimit="10" width="7.5" height="7.5"/>
			<rect x="664.1" y="390.4" fill="#0A2332" stroke="#193634" stroke-miterlimit="10" width="7.5" height="7.5"/>
			<rect x="698.3" y="403.1" fill="#0A2332" stroke="#193634" stroke-miterlimit="10" width="7.5" height="7.5"/>
			<rect x="711.7" y="403.1" fill="#0A2332" stroke="#193634" stroke-miterlimit="10" width="7.5" height="7.5"/>
			<rect x="698.3" y="390.4" fill="#0A2332" stroke="#193634" stroke-miterlimit="10" width="7.5" height="7.5"/>
			<rect x="711.7" y="390.4" fill="#0A2332" stroke="#193634" stroke-miterlimit="10" width="7.5" height="7.5"/>
			<rect x="698.3" y="377.7" fill="#0A2332" stroke="#193634" stroke-miterlimit="10" width="7.5" height="7.5"/>
			<rect x="711.7" y="377.7" fill="#0A2332" stroke="#193634" stroke-miterlimit="10" width="7.5" height="7.5"/>
			<rect x="698.3" y="364.9" fill="#0A2332" stroke="#193634" stroke-miterlimit="10" width="7.5" height="7.5"/>
			<rect x="711.7" y="364.9" fill="#0A2332" stroke="#193634" stroke-miterlimit="10" width="7.5" height="7.5"/>
			<rect x="698.3" y="352.2" fill="#0A2332" stroke="#193634" stroke-miterlimit="10" width="7.5" height="7.5"/>
			<rect x="711.7" y="352.2" fill="#0A2332" stroke="#193634" stroke-miterlimit="10" width="7.5" height="7.5"/>
			<rect x="698.3" y="339.4" fill="#0A2332" stroke="#193634" stroke-miterlimit="10" width="7.5" height="7.5"/>
			<rect x="711.7" y="339.4" fill="#0A2332" stroke="#193634" stroke-miterlimit="10" width="7.5" height="7.5"/>
			<rect x="698.3" y="326.7" fill="#0A2332" stroke="#193634" stroke-miterlimit="10" width="7.5" height="7.5"/>
			<rect x="711.7" y="326.7" fill="#0A2332" stroke="#193634" stroke-miterlimit="10" width="7.5" height="7.5"/>
			<rect x="698.3" y="313.9" fill="#0A2332" stroke="#193634" stroke-miterlimit="10" width="7.5" height="7.5"/>
			<rect x="711.7" y="313.9" fill="#0A2332" stroke="#193634" stroke-miterlimit="10" width="7.5" height="7.5"/>
			<rect x="698.3" y="301.2" fill="#0A2332" stroke="#193634" stroke-miterlimit="10" width="7.5" height="7.5"/>
			<rect x="711.7" y="301.2" fill="#0A2332" stroke="#193634" stroke-miterlimit="10" width="7.5" height="7.5"/>
			<rect x="698.3" y="288.5" fill="#0A2332" stroke="#193634" stroke-miterlimit="10" width="7.5" height="7.5"/>
			<rect x="711.7" y="288.5" fill="#0A2332" stroke="#193634" stroke-miterlimit="10" width="7.5" height="7.5"/>
			<rect x="698.3" y="275.7" fill="#0A2332" stroke="#193634" stroke-miterlimit="10" width="7.5" height="7.5"/>
			<rect x="711.7" y="275.7" fill="#0A2332" stroke="#193634" stroke-miterlimit="10" width="7.5" height="7.5"/>
			<rect x="756.6" y="403.1" fill="#0A2332" stroke="#193634" stroke-miterlimit="10" width="7.5" height="7.5"/>
			<rect x="770" y="403.1" fill="#0A2332" stroke="#193634" stroke-miterlimit="10" width="7.5" height="7.5"/>
			<rect x="756.6" y="390.4" fill="#0A2332" stroke="#193634" stroke-miterlimit="10" width="7.5" height="7.5"/>
			<rect x="770" y="390.4" fill="#0A2332" stroke="#193634" stroke-miterlimit="10" width="7.5" height="7.5"/>
			<rect x="756.6" y="377.7" fill="#0A2332" stroke="#193634" stroke-miterlimit="10" width="7.5" height="7.5"/>
			<rect x="770" y="377.7" fill="#0A2332" stroke="#193634" stroke-miterlimit="10" width="7.5" height="7.5"/>
			<rect x="756.6" y="364.9" fill="#0A2332" stroke="#193634" stroke-miterlimit="10" width="7.5" height="7.5"/>
			<rect x="770" y="364.9" fill="#0A2332" stroke="#193634" stroke-miterlimit="10" width="7.5" height="7.5"/>
			<rect x="756.6" y="352.2" fill="#0A2332" stroke="#193634" stroke-miterlimit="10" width="7.5" height="7.5"/>
			<rect x="770" y="352.2" fill="#0A2332" stroke="#193634" stroke-miterlimit="10" width="7.5" height="7.5"/>
			<rect x="756.6" y="339.4" fill="#0A2332" stroke="#193634" stroke-miterlimit="10" width="7.5" height="7.5"/>
			<rect x="770" y="339.4" fill="#0A2332" stroke="#193634" stroke-miterlimit="10" width="7.5" height="7.5"/>
			<rect x="756.6" y="326.7" fill="#0A2332" stroke="#193634" stroke-miterlimit="10" width="7.5" height="7.5"/>
			<rect x="770" y="326.7" fill="#0A2332" stroke="#193634" stroke-miterlimit="10" width="7.5" height="7.5"/>
			<rect x="756.6" y="313.9" fill="#0A2332" stroke="#193634" stroke-miterlimit="10" width="7.5" height="7.5"/>
			<rect x="770" y="313.9" fill="#0A2332" stroke="#193634" stroke-miterlimit="10" width="7.5" height="7.5"/>
			<rect x="756.6" y="301.2" fill="#0A2332" stroke="#193634" stroke-miterlimit="10" width="7.5" height="7.5"/>
			<rect x="770" y="301.2" fill="#0A2332" stroke="#193634" stroke-miterlimit="10" width="7.5" height="7.5"/>
			<rect x="756.6" y="288.5" fill="#0A2332" stroke="#193634" stroke-miterlimit="10" width="7.5" height="7.5"/>
			<rect x="770" y="288.5" fill="#0A2332" stroke="#193634" stroke-miterlimit="10" width="7.5" height="7.5"/>
			<rect x="756.6" y="275.7" fill="#0A2332" stroke="#193634" stroke-miterlimit="10" width="7.5" height="7.5"/>
			<rect x="770" y="275.7" fill="#0A2332" stroke="#193634" stroke-miterlimit="10" width="7.5" height="7.5"/>
			<rect x="756.6" y="263" fill="#0A2332" stroke="#193634" stroke-miterlimit="10" width="7.5" height="7.5"/>
			<rect x="770" y="263" fill="#0A2332" stroke="#193634" stroke-miterlimit="10" width="7.5" height="7.5"/>
			<rect x="756.6" y="250.2" fill="#0A2332" stroke="#193634" stroke-miterlimit="10" width="7.5" height="7.5"/>
			<rect x="770" y="250.2" fill="#0A2332" stroke="#193634" stroke-miterlimit="10" width="7.5" height="7.5"/>
			<rect x="756.6" y="237.5" fill="#0A2332" stroke="#193634" stroke-miterlimit="10" width="7.5" height="7.5"/>
			<rect x="770" y="237.5" fill="#0A2332" stroke="#193634" stroke-miterlimit="10" width="7.5" height="7.5"/>
			<rect x="756.6" y="224.8" fill="#0A2332" stroke="#193634" stroke-miterlimit="10" width="7.5" height="7.5"/>
			<rect x="770" y="224.8" fill="#0A2332" stroke="#193634" stroke-miterlimit="10" width="7.5" height="7.5"/>
			<rect x="806.8" y="403.1" fill="#0A2332" stroke="#193634" stroke-miterlimit="10" width="7.5" height="7.5"/>
			<rect x="820.2" y="403.1" fill="#0A2332" stroke="#193634" stroke-miterlimit="10" width="7.5" height="7.5"/>
			<rect x="806.8" y="390.4" fill="#0A2332" stroke="#193634" stroke-miterlimit="10" width="7.5" height="7.5"/>
			<rect x="820.2" y="390.4" fill="#0A2332" stroke="#193634" stroke-miterlimit="10" width="7.5" height="7.5"/>
			<rect x="806.8" y="377.7" fill="#0A2332" stroke="#193634" stroke-miterlimit="10" width="7.5" height="7.5"/>
			<rect x="820.2" y="377.7" fill="#0A2332" stroke="#193634" stroke-miterlimit="10" width="7.5" height="7.5"/>
			<rect x="806.8" y="364.9" fill="#0A2332" stroke="#193634" stroke-miterlimit="10" width="7.5" height="7.5"/>
			<rect x="820.2" y="364.9" fill="#0A2332" stroke="#193634" stroke-miterlimit="10" width="7.5" height="7.5"/>
			<rect x="806.8" y="352.2" fill="#0A2332" stroke="#193634" stroke-miterlimit="10" width="7.5" height="7.5"/>
			<rect x="820.2" y="352.2" fill="#0A2332" stroke="#193634" stroke-miterlimit="10" width="7.5" height="7.5"/>
			<rect x="806.8" y="339.4" fill="#0A2332" stroke="#193634" stroke-miterlimit="10" width="7.5" height="7.5"/>
			<rect x="820.2" y="339.4" fill="#0A2332" stroke="#193634" stroke-miterlimit="10" width="7.5" height="7.5"/>
			<rect x="806.8" y="326.7" fill="#0A2332" stroke="#193634" stroke-miterlimit="10" width="7.5" height="7.5"/>
			<rect x="820.2" y="326.7" fill="#0A2332" stroke="#193634" stroke-miterlimit="10" width="7.5" height="7.5"/>
			<rect x="806.8" y="313.9" fill="#0A2332" stroke="#193634" stroke-miterlimit="10" width="7.5" height="7.5"/>
			<rect x="820.2" y="313.9" fill="#0A2332" stroke="#193634" stroke-miterlimit="10" width="7.5" height="7.5"/>
			<rect x="806.8" y="301.2" fill="#0A2332" stroke="#193634" stroke-miterlimit="10" width="7.5" height="7.5"/>
			<rect x="820.2" y="301.2" fill="#0A2332" stroke="#193634" stroke-miterlimit="10" width="7.5" height="7.5"/>
			<rect x="806.8" y="288.5" fill="#0A2332" stroke="#193634" stroke-miterlimit="10" width="7.5" height="7.5"/>
			<rect x="820.2" y="288.5" fill="#0A2332" stroke="#193634" stroke-miterlimit="10" width="7.5" height="7.5"/>
			<rect x="806.8" y="275.7" fill="#0A2332" stroke="#193634" stroke-miterlimit="10" width="7.5" height="7.5"/>
			<rect x="820.2" y="275.7" fill="#0A2332" stroke="#193634" stroke-miterlimit="10" width="7.5" height="7.5"/>
			<rect x="806.8" y="263" fill="#0A2332" stroke="#193634" stroke-miterlimit="10" width="7.5" height="7.5"/>
			<rect x="820.2" y="263" fill="#0A2332" stroke="#193634" stroke-miterlimit="10" width="7.5" height="7.5"/>
			<rect x="806.8" y="250.2" fill="#0A2332" stroke="#193634" stroke-miterlimit="10" width="7.5" height="7.5"/>
			<rect x="820.2" y="250.2" fill="#0A2332" stroke="#193634" stroke-miterlimit="10" width="7.5" height="7.5"/>
			<rect x="806.8" y="237.5" fill="#0A2332" stroke="#193634" stroke-miterlimit="10" width="7.5" height="7.5"/>
			<rect x="820.2" y="237.5" fill="#0A2332" stroke="#193634" stroke-miterlimit="10" width="7.5" height="7.5"/>
			<rect x="806.8" y="224.8" fill="#0A2332" stroke="#193634" stroke-miterlimit="10" width="7.5" height="7.5"/>
			<rect x="820.2" y="224.8" fill="#0A2332" stroke="#193634" stroke-miterlimit="10" width="7.5" height="7.5"/>
			<rect x="705" y="263" fill="#0A2332" stroke="#193634" stroke-miterlimit="10" width="7.5" height="7.5"/>
			<rect x="705" y="250.2" fill="#0A2332" stroke="#193634" stroke-miterlimit="10" width="7.5" height="7.5"/>
			<rect x="705" y="237.5" fill="#0A2332" stroke="#193634" stroke-miterlimit="10" width="7.5" height="7.5"/>
			<rect x="705" y="224.8" fill="#0A2332" stroke="#193634" stroke-miterlimit="10" width="7.5" height="7.5"/>
			<rect x="705" y="212" fill="#0A2332" stroke="#193634" stroke-miterlimit="10" width="7.5" height="7.5"/>
			<rect x="637.3" y="377.7" fill="#0A2332" stroke="#193634" stroke-miterlimit="10" width="7.5" height="7.5"/>
			<rect x="650.7" y="377.7" fill="#0A2332" stroke="#193634" stroke-miterlimit="10" width="7.5" height="7.5"/>
			<rect x="664.1" y="377.7" fill="#0A2332" stroke="#193634" stroke-miterlimit="10" width="7.5" height="7.5"/>
			<rect x="637.3" y="364.9" fill="#0A2332" stroke="#193634" stroke-miterlimit="10" width="7.5" height="7.5"/>
			<rect x="650.7" y="364.9" fill="#0A2332" stroke="#193634" stroke-miterlimit="10" width="7.5" height="7.5"/>
			<rect x="664.1" y="364.9" fill="#0A2332" stroke="#193634" stroke-miterlimit="10" width="7.5" height="7.5"/>
			<rect x="637.3" y="352.2" fill="#0A2332" stroke="#193634" stroke-miterlimit="10" width="7.5" height="7.5"/>
			<rect x="650.7" y="352.2" fill="#0A2332" stroke="#193634" stroke-miterlimit="10" width="7.5" height="7.5"/>
			<rect x="664.1" y="352.2" fill="#0A2332" stroke="#193634" stroke-miterlimit="10" width="7.5" height="7.5"/>
			<rect x="637.3" y="339.4" fill="#0A2332" stroke="#193634" stroke-miterlimit="10" width="7.5" height="7.5"/>
			<rect x="650.7" y="339.4" fill="#0A2332" stroke="#193634" stroke-miterlimit="10" width="7.5" height="7.5"/>
			<rect x="664.1" y="339.4" fill="#0A2332" stroke="#193634" stroke-miterlimit="10" width="7.5" height="7.5"/>
			<rect x="637.3" y="326.7" fill="#0A2332" stroke="#193634" stroke-miterlimit="10" width="7.5" height="7.5"/>
			<rect x="650.7" y="326.7" fill="#0A2332" stroke="#193634" stroke-miterlimit="10" width="7.5" height="7.5"/>
			<rect x="664.1" y="326.7" fill="#0A2332" stroke="#193634" stroke-miterlimit="10" width="7.5" height="7.5"/>
			<rect x="637.3" y="313.9" fill="#0A2332" stroke="#193634" stroke-miterlimit="10" width="7.5" height="7.5"/>
			<rect x="650.7" y="313.9" fill="#0A2332" stroke="#193634" stroke-miterlimit="10" width="7.5" height="7.5"/>
			<rect x="664.1" y="313.9" fill="#0A2332" stroke="#193634" stroke-miterlimit="10" width="7.5" height="7.5"/>
			<rect x="637.3" y="301.2" fill="#0A2332" stroke="#193634" stroke-miterlimit="10" width="7.5" height="7.5"/>
			<rect x="650.7" y="301.2" fill="#0A2332" stroke="#193634" stroke-miterlimit="10" width="7.5" height="7.5"/>
			<rect x="664.1" y="301.2" fill="#0A2332" stroke="#193634" stroke-miterlimit="10" width="7.5" height="7.5"/>
			<rect x="637.3" y="288.5" fill="#0A2332" stroke="#193634" stroke-miterlimit="10" width="7.5" height="7.5"/>
			<rect x="650.7" y="288.5" fill="#0A2332" stroke="#193634" stroke-miterlimit="10" width="7.5" height="7.5"/>
			<rect x="664.1" y="288.5" fill="#0A2332" stroke="#193634" stroke-miterlimit="10" width="7.5" height="7.5"/>
			<rect x="853.1" y="403.1" fill="#0A2332" stroke="#193634" stroke-miterlimit="10" width="7.5" height="7.5"/>
			<rect x="866.5" y="403.1" fill="#0A2332" stroke="#193634" stroke-miterlimit="10" width="7.5" height="7.5"/>
			<rect x="879.9" y="403.1" fill="#0A2332" stroke="#193634" stroke-miterlimit="10" width="7.5" height="7.5"/>
			<rect x="853.1" y="390.4" fill="#0A2332" stroke="#193634" stroke-miterlimit="10" width="7.5" height="7.5"/>
			<rect x="866.5" y="390.4" fill="#0A2332" stroke="#193634" stroke-miterlimit="10" width="7.5" height="7.5"/>
			<rect x="879.9" y="390.4" fill="#0A2332" stroke="#193634" stroke-miterlimit="10" width="7.5" height="7.5"/>
			<rect x="853.1" y="377.7" fill="#0A2332" stroke="#193634" stroke-miterlimit="10" width="7.5" height="7.5"/>
			<rect x="866.5" y="377.7" fill="#0A2332" stroke="#193634" stroke-miterlimit="10" width="7.5" height="7.5"/>
			<rect x="879.9" y="377.7" fill="#0A2332" stroke="#193634" stroke-miterlimit="10" width="7.5" height="7.5"/>
			<rect x="853.1" y="364.9" fill="#0A2332" stroke="#193634" stroke-miterlimit="10" width="7.5" height="7.5"/>
			<rect x="866.5" y="364.9" fill="#0A2332" stroke="#193634" stroke-miterlimit="10" width="7.5" height="7.5"/>
			<rect x="879.9" y="364.9" fill="#0A2332" stroke="#193634" stroke-miterlimit="10" width="7.5" height="7.5"/>
			<rect x="853.1" y="352.2" fill="#0A2332" stroke="#193634" stroke-miterlimit="10" width="7.5" height="7.5"/>
			<rect x="866.5" y="352.2" fill="#0A2332" stroke="#193634" stroke-miterlimit="10" width="7.5" height="7.5"/>
			<rect x="879.9" y="352.2" fill="#0A2332" stroke="#193634" stroke-miterlimit="10" width="7.5" height="7.5"/>
			<rect x="853.1" y="339.4" fill="#0A2332" stroke="#193634" stroke-miterlimit="10" width="7.5" height="7.5"/>
			<rect x="866.5" y="339.4" fill="#0A2332" stroke="#193634" stroke-miterlimit="10" width="7.5" height="7.5"/>
			<rect x="879.9" y="339.4" fill="#0A2332" stroke="#193634" stroke-miterlimit="10" width="7.5" height="7.5"/>
			<rect x="853.1" y="326.7" fill="#0A2332" stroke="#193634" stroke-miterlimit="10" width="7.5" height="7.5"/>
			<rect x="866.5" y="326.7" fill="#0A2332" stroke="#193634" stroke-miterlimit="10" width="7.5" height="7.5"/>
			<rect x="879.9" y="326.7" fill="#0A2332" stroke="#193634" stroke-miterlimit="10" width="7.5" height="7.5"/>
			<rect x="853.1" y="313.9" fill="#0A2332" stroke="#193634" stroke-miterlimit="10" width="7.5" height="7.5"/>
			<rect x="866.5" y="313.9" fill="#0A2332" stroke="#193634" stroke-miterlimit="10" width="7.5" height="7.5"/>
			<rect x="879.9" y="313.9" fill="#0A2332" stroke="#193634" stroke-miterlimit="10" width="7.5" height="7.5"/>
			<rect x="866.5" y="301.2" fill="#0A2332" stroke="#193634" stroke-miterlimit="10" width="7.5" height="7.5"/>
			<rect x="866.5" y="288.5" fill="#0A2332" stroke="#193634" stroke-miterlimit="10" width="7.5" height="7.5"/>
			<rect x="879.9" y="301.2" fill="#0A2332" stroke="#193634" stroke-miterlimit="10" width="7.5" height="7.5"/>
			<rect x="879.9" y="288.5" fill="#0A2332" stroke="#193634" stroke-miterlimit="10" width="7.5" height="7.5"/>
			<rect x="879.9" y="275.7" fill="#0A2332" stroke="#193634" stroke-miterlimit="10" width="7.5" height="7.5"/>
			<rect x="879.9" y="263" fill="#0A2332" stroke="#193634" stroke-miterlimit="10" width="7.5" height="7.5"/>
			<rect x="588.8" y="237.5" fill="#0A2332" stroke="#193634" stroke-miterlimit="10" width="7.5" height="7.5"/>
			<rect x="602.2" y="237.5" fill="#0A2332" stroke="#193634" stroke-miterlimit="10" width="7.5" height="7.5"/>
			<rect x="602.2" y="224.8" fill="#0A2332" stroke="#193634" stroke-miterlimit="10" width="7.5" height="7.5"/>
			<rect x="489.7" y="364.9" fill="#0A2332" stroke="#193634" stroke-miterlimit="10" width="7.5" height="7.5"/>
			<rect x="503.1" y="364.9" fill="#0A2332" stroke="#193634" stroke-miterlimit="10" width="7.5" height="7.5"/>
			<rect x="516.5" y="364.9" fill="#0A2332" stroke="#193634" stroke-miterlimit="10" width="7.5" height="7.5"/>
			<rect x="529.9" y="364.9" fill="#0A2332" stroke="#193634" stroke-miterlimit="10" width="7.5" height="7.5"/>
			<rect x="489.7" y="352.2" fill="#0A2332" stroke="#193634" stroke-miterlimit="10" width="7.5" height="7.5"/>
			<rect x="503.1" y="352.2" fill="#0A2332" stroke="#193634" stroke-miterlimit="10" width="7.5" height="7.5"/>
			<rect x="516.5" y="352.2" fill="#0A2332" stroke="#193634" stroke-miterlimit="10" width="7.5" height="7.5"/>
			<rect x="529.9" y="352.2" fill="#0A2332" stroke="#193634" stroke-miterlimit="10" width="7.5" height="7.5"/>
			<rect x="489.7" y="339.4" fill="#0A2332" stroke="#193634" stroke-miterlimit="10" width="7.5" height="7.5"/>
			<rect x="503.1" y="339.4" fill="#0A2332" stroke="#193634" stroke-miterlimit="10" width="7.5" height="7.5"/>
			<rect x="516.5" y="339.4" fill="#0A2332" stroke="#193634" stroke-miterlimit="10" width="7.5" height="7.5"/>
			<rect x="529.9" y="339.4" fill="#0A2332" stroke="#193634" stroke-miterlimit="10" width="7.5" height="7.5"/>
			<rect x="489.7" y="326.7" fill="#0A2332" stroke="#193634" stroke-miterlimit="10" width="7.5" height="7.5"/>
			<rect x="503.1" y="326.7" fill="#0A2332" stroke="#193634" stroke-miterlimit="10" width="7.5" height="7.5"/>
			<rect x="516.5" y="326.7" fill="#0A2332" stroke="#193634" stroke-miterlimit="10" width="7.5" height="7.5"/>
			<rect x="529.9" y="326.7" fill="#0A2332" stroke="#193634" stroke-miterlimit="10" width="7.5" height="7.5"/>
			<rect x="489.7" y="313.9" fill="#0A2332" stroke="#193634" stroke-miterlimit="10" width="7.5" height="7.5"/>
			<rect x="503.1" y="313.9" fill="#0A2332" stroke="#193634" stroke-miterlimit="10" width="7.5" height="7.5"/>
			<rect x="516.5" y="313.9" fill="#0A2332" stroke="#193634" stroke-miterlimit="10" width="7.5" height="7.5"/>
			<rect x="529.9" y="313.9" fill="#0A2332" stroke="#193634" stroke-miterlimit="10" width="7.5" height="7.5"/>
			<rect x="489.7" y="301.2" fill="#0A2332" stroke="#193634" stroke-miterlimit="10" width="7.5" height="7.5"/>
			<rect x="503.1" y="301.2" fill="#0A2332" stroke="#193634" stroke-miterlimit="10" width="7.5" height="7.5"/>
			<rect x="516.5" y="301.2" fill="#0A2332" stroke="#193634" stroke-miterlimit="10" width="7.5" height="7.5"/>
			<rect x="529.9" y="301.2" fill="#0A2332" stroke="#193634" stroke-miterlimit="10" width="7.5" height="7.5"/>
			<rect x="489.7" y="288.5" fill="#0A2332" stroke="#193634" stroke-miterlimit="10" width="7.5" height="7.5"/>
			<rect x="503.1" y="288.5" fill="#0A2332" stroke="#193634" stroke-miterlimit="10" width="7.5" height="7.5"/>
			<rect x="516.5" y="288.5" fill="#0A2332" stroke="#193634" stroke-miterlimit="10" width="7.5" height="7.5"/>
			<rect x="529.9" y="288.5" fill="#0A2332" stroke="#193634" stroke-miterlimit="10" width="7.5" height="7.5"/>
			<rect x="489.7" y="275.7" fill="#0A2332" stroke="#193634" stroke-miterlimit="10" width="7.5" height="7.5"/>
			<rect x="503.1" y="275.7" fill="#0A2332" stroke="#193634" stroke-miterlimit="10" width="7.5" height="7.5"/>
			<rect x="516.5" y="275.7" fill="#0A2332" stroke="#193634" stroke-miterlimit="10" width="7.5" height="7.5"/>
			<rect x="529.9" y="275.7" fill="#0A2332" stroke="#193634" stroke-miterlimit="10" width="7.5" height="7.5"/>
			<rect x="489.7" y="263" fill="#0A2332" stroke="#193634" stroke-miterlimit="10" width="7.5" height="7.5"/>
			<rect x="503.1" y="263" fill="#0A2332" stroke="#193634" stroke-miterlimit="10" width="7.5" height="7.5"/>
			<rect x="516.5" y="263" fill="#0A2332" stroke="#193634" stroke-miterlimit="10" width="7.5" height="7.5"/>
			<rect x="529.9" y="263" fill="#0A2332" stroke="#193634" stroke-miterlimit="10" width="7.5" height="7.5"/>
			<rect x="489.7" y="250.2" fill="#0A2332" stroke="#193634" stroke-miterlimit="10" width="7.5" height="7.5"/>
			<rect x="503.1" y="250.2" fill="#0A2332" stroke="#193634" stroke-miterlimit="10" width="7.5" height="7.5"/>
			<rect x="516.5" y="250.2" fill="#0A2332" stroke="#193634" stroke-miterlimit="10" width="7.5" height="7.5"/>
			<rect x="529.9" y="250.2" fill="#0A2332" stroke="#193634" stroke-miterlimit="10" width="7.5" height="7.5"/>
		</g>
	</g>
	<g>
		<rect x="85.5" y="273" fill="#165B7B" stroke="#26A7DD" stroke-miterlimit="10" width="3.5" height="45.2"/>
		<rect x="96" y="257.8" fill="#165B7B" stroke="#26A7DD" stroke-miterlimit="10" width="3.5" height="45.2"/>
		<rect x="119.3" y="276.4" fill="#165B7B" stroke="#26A7DD" stroke-miterlimit="10" width="3.5" height="45.2"/>
		<polygon fill="#193634" stroke="#558139" stroke-miterlimit="10" points="72.8,359.8 67.2,354.2 39.6,381.8 39.6,420.9 
			47.5,420.9 47.5,385.1 		"/>
		<rect x="202.1" y="307.8" fill="#322850" stroke="#5A326E" stroke-miterlimit="10" width="6.1" height="31.1"/>
		<rect x="219" y="307.8" fill="#322850" stroke="#5A326E" stroke-miterlimit="10" width="6.1" height="31.1"/>
		<path fill="#5A326E" stroke="#8C4682" stroke-miterlimit="10" d="M269.9,370.4H219v10.4h40.4h10.4v10.4v31h10.4v-41.4
			C280.3,375,275.6,370.4,269.9,370.4z"/>
		<path fill="#5A326E" stroke="#8C4682" stroke-miterlimit="10" d="M264,366.3h-50.9v10.4h40.4H264v10.4v36.4h10.4v-46.9
			C274.4,371,269.8,366.3,264,366.3z"/>
		<path fill="#5A326E" stroke="#8C4682" stroke-miterlimit="10" d="M256.6,362.7h-50.9v10.4h36.4h14.4v10.4V420h10.4v-46.9
			C267.1,367.4,262.4,362.7,256.6,362.7z"/>
		<path fill="#165B7B" stroke="#FFFFFF" stroke-width="2" stroke-miterlimit="10" d="M167.5,419.4v-81.1c0-19.5-15.8-35.3-35.3-35.3
			H99.4c-19.5,0-35.3,15.8-35.3,35.3v81.1H167.5z"/>
		<rect x="106.8" y="337.4" fill="#0D3042" stroke="#26A7DD" stroke-miterlimit="10" width="17.3" height="17.6"/>
		<rect x="106.8" y="363" fill="#0D3042" stroke="#26A7DD" stroke-miterlimit="10" width="17.3" height="17.6"/>
		<rect x="106.8" y="388.7" fill="#0D3042" stroke="#26A7DD" stroke-miterlimit="10" width="17.3" height="17.6"/>
		<rect x="86.5" y="337.4" fill="#0D3042" stroke="#26A7DD" stroke-miterlimit="10" width="13.9" height="17.6"/>
		<rect x="86.5" y="363" fill="#0D3042" stroke="#26A7DD" stroke-miterlimit="10" width="13.9" height="17.6"/>
		<rect x="86.5" y="388.7" fill="#0D3042" stroke="#26A7DD" stroke-miterlimit="10" width="13.9" height="17.6"/>
		<rect x="130.1" y="337.4" fill="#0D3042" stroke="#26A7DD" stroke-miterlimit="10" width="13.9" height="17.6"/>
		<rect x="130.1" y="363" fill="#0D3042" stroke="#26A7DD" stroke-miterlimit="10" width="13.9" height="17.6"/>
		<rect x="130.1" y="388.7" fill="#0D3042" stroke="#26A7DD" stroke-miterlimit="10" width="13.9" height="17.6"/>
		<rect x="74.6" y="337.4" fill="#0D3042" stroke="#26A7DD" stroke-miterlimit="10" width="6.9" height="17.6"/>
		<rect x="74.6" y="363" fill="#0D3042" stroke="#26A7DD" stroke-miterlimit="10" width="6.9" height="17.6"/>
		<rect x="74.6" y="388.7" fill="#0D3042" stroke="#26A7DD" stroke-miterlimit="10" width="6.9" height="17.6"/>
		<rect x="67.6" y="337.4" fill="#0D3042" stroke="#26A7DD" stroke-miterlimit="10" width="3.5" height="17.6"/>
		<rect x="67.6" y="363" fill="#0D3042" stroke="#26A7DD" stroke-miterlimit="10" width="3.5" height="17.6"/>
		<rect x="67.6" y="388.7" fill="#0D3042" stroke="#26A7DD" stroke-miterlimit="10" width="3.5" height="17.6"/>
		<polygon fill="#0D3042" stroke="#FFFFFF" stroke-width="2" stroke-miterlimit="10" points="146.1,335.5 78.7,402.9 78.7,418.9 
			239,418.9 239,335.5 		"/>
		<path fill="#5A326E" stroke="#8C4682" stroke-miterlimit="10" d="M218.7,312.1h-11.1c-7.7,0-14-6.3-14-14V287c0-7.7,6.3-14,14-14
			h11.1c7.7,0,14,6.3,14,14v11.1C232.7,305.8,226.4,312.1,218.7,312.1z"/>
		<rect x="18" y="417.1" fill="#558139" stroke="#8DC63F" stroke-miterlimit="10" width="282.2" height="9"/>
		<rect x="148.9" y="344.2" fill="#165B7B" stroke="#26A7DD" stroke-miterlimit="10" width="81.9" height="36.6"/>
		<rect x="104.3" y="388.9" fill="#0D3042" stroke="#165B7B" stroke-miterlimit="10" width="126.4" height="7.4"/>
		<rect x="104.3" y="403.9" fill="#0D3042" stroke="#165B7B" stroke-miterlimit="10" width="126.4" height="7.4"/>
		<circle fill="#165B7B" stroke="#26A7DD" stroke-miterlimit="10" cx="78.3" cy="325.3" r="3.7"/>
		<circle fill="#165B7B" stroke="#26A7DD" stroke-miterlimit="10" cx="90.7" cy="325.3" r="3.7"/>
		<circle fill="#165B7B" stroke="#26A7DD" stroke-miterlimit="10" cx="103.1" cy="325.3" r="3.7"/>
		<circle fill="#165B7B" stroke="#26A7DD" stroke-miterlimit="10" cx="115.5" cy="325.3" r="3.7"/>
		<circle fill="#165B7B" stroke="#26A7DD" stroke-miterlimit="10" cx="127.8" cy="325.3" r="3.7"/>
		<circle fill="#165B7B" stroke="#26A7DD" stroke-miterlimit="10" cx="140.2" cy="325.3" r="3.7"/>
		<circle fill="#165B7B" stroke="#26A7DD" stroke-miterlimit="10" cx="152.6" cy="325.3" r="3.7"/>
	</g>
	<polyline fill="none" stroke="#8C4682" stroke-miterlimit="10" points="654.5,579.4 627,579.4 627,492.5 613.9,479.5 	"/>
</g>
</svg>
